<svg xmlns="http://www.w3.org/2000/svg" viewBox="0 0 501.91 502.33"><title>Asset 4</title><g id="Layer_2" data-name="Layer 2"><g id="Layer_1-2" data-name="Layer 1"><path d="M41.49,502.33H0V419H51.63V164.21L24,192.07.76,168.68c.55-.58,1.85-2.07,3.24-3.46,14.59-14.62,29.13-29.28,43.87-43.75a12.79,12.79,0,0,0,4.27-10.12C51.92,90.7,52,70.05,52,49.4V42.29H83.18V84.06L86,85.87c1.09-2,1.8-4.31,3.32-5.84q28.5-28.76,57.21-57.3C177-7.55,221.77-7.56,252.43,22.6c7,6.86,14,13.67,20.55,20.09L169.21,146.46c-16.74-16.83-37.13-32.06-41.43-59.71A51.06,51.06,0,0,0,123.63,90c-12.31,12.27-24.69,24.47-36.78,37a12.62,12.62,0,0,0-3.36,7.9q-.26,139.23-.12,278.46c0,1.58.23,3.17.39,5.12H292.5V376.87h-7.34q-41.71,0-83.43,0c-22-.05-34.46-12.58-34.47-34.7q0-69.92,0-139.84c0-22.19,12.39-34.62,34.49-34.63q112,0,223.91,0c22,0,34.73,12.66,34.75,34.57q.07,69.92,0,139.84c0,22-12.67,34.71-34.6,34.75-27.81.06-55.62,0-83.43,0H334.9v41.86h167v83.58H460.59V461.2H41.49ZM209.31,334.48H418V210H209.31ZM169.46,101.83l58.62-58.69c-15.27-15.76-42.24-15.56-58.35.85S153.64,87.4,169.46,101.83Z"/></g></g></svg>